<?xml version="1.0" encoding="utf-8"?>
<!-- Generator: Fusion 360, Shaper Origin Export Add-In, Version 1.9.0  -->
<svg xmlns="http://www.w3.org/2000/svg" xmlns:xlink="http://www.w3.org/1999/xlink" xmlns:shaper="http://www.shapertools.com/namespaces/shaper" shaper:fusionaddin="version:1.9.0" width="31.845cm" height="26.97cm" version="1.1" x="0cm" y="0cm" viewBox="0 0 31.845 26.97" enable-background="new 0 0 31.845 26.97" xml:space="preserve"><path d="M15.4225,-13.485 A0.5,0.5 270 0,1 15.9225,-12.985 L15.9225,12.985 A0.5,0.5 0 0,1 15.4225,13.485 L-15.4225,13.485 A0.5,0.5 90 0,1 -15.9225,12.985 L-15.9225,-12.985 A0.5,0.5 180 0,1 -15.4225,-13.485 L15.4225,-13.485z" transform="matrix(1,0,0,-1,15.9225,13.485)" fill="rgb(0,0,0)" shaper:cutDepth="0.3cm" stroke-linecap="round" stroke-linejoin="round" /><path d="M14.4613,2.0696 a0.17,0.17 0 1,1 0.34,0 a0.17,0.17 0 1,1 -0.34,0z" transform="matrix(1,0,0,-1,15.9225,13.485)" fill="rgb(255,255,255)" stroke="rgb(0,0,0)" stroke-width="0.0010cm" stroke-linecap="round" stroke-linejoin="round" shaper:cutDepth="0.3cm" /><path d="M6.83,-2.985 a0.17,0.17 0 1,1 0.34,0 a0.17,0.17 0 1,1 -0.34,0z" transform="matrix(1,0,0,-1,15.9225,13.485)" fill="rgb(255,255,255)" stroke="rgb(0,0,0)" stroke-width="0.0010cm" stroke-linecap="round" stroke-linejoin="round" shaper:cutDepth="0.3cm" /><path d="M-7.17,-11.985 a0.17,0.17 0 1,1 0.34,0 a0.17,0.17 0 1,1 -0.34,0z" transform="matrix(1,0,0,-1,15.9225,13.485)" fill="rgb(255,255,255)" stroke="rgb(0,0,0)" stroke-width="0.0010cm" stroke-linecap="round" stroke-linejoin="round" shaper:cutDepth="0.3cm" /><path d="M-14.8013,12.1938 a0.17,0.17 0 1,1 0.34,0 a0.17,0.17 0 1,1 -0.34,0z" transform="matrix(1,0,0,-1,15.9225,13.485)" fill="rgb(255,255,255)" stroke="rgb(0,0,0)" stroke-width="0.0010cm" stroke-linecap="round" stroke-linejoin="round" shaper:cutDepth="0.3cm" /><path d="M-7.17,-2.985 a0.17,0.17 0 1,1 0.34,0 a0.17,0.17 0 1,1 -0.34,0z" transform="matrix(1,0,0,-1,15.9225,13.485)" fill="rgb(255,255,255)" stroke="rgb(0,0,0)" stroke-width="0.0010cm" stroke-linecap="round" stroke-linejoin="round" shaper:cutDepth="0.3cm" /><path d="M6.83,-11.985 a0.17,0.17 0 1,1 0.34,0 a0.17,0.17 0 1,1 -0.34,0z" transform="matrix(1,0,0,-1,15.9225,13.485)" fill="rgb(255,255,255)" stroke="rgb(0,0,0)" stroke-width="0.0010cm" stroke-linecap="round" stroke-linejoin="round" shaper:cutDepth="0.3cm" /><path d="M14.4613,12.1938 a0.17,0.17 0 1,1 0.34,0 a0.17,0.17 0 1,1 -0.34,0z" transform="matrix(1,0,0,-1,15.9225,13.485)" fill="rgb(255,255,255)" stroke="rgb(0,0,0)" stroke-width="0.0010cm" stroke-linecap="round" stroke-linejoin="round" shaper:cutDepth="0.3cm" /><path d="M-14.8013,2.0696 a0.17,0.17 0 1,1 0.34,0 a0.17,0.17 0 1,1 -0.34,0z" transform="matrix(1,0,0,-1,15.9225,13.485)" fill="rgb(255,255,255)" stroke="rgb(0,0,0)" stroke-width="0.0010cm" stroke-linecap="round" stroke-linejoin="round" shaper:cutDepth="0.3cm" /></svg>